<svg width="206" height="264" viewBox="0 0 206 264" fill="none" xmlns="http://www.w3.org/2000/svg">
<path d="M102.294 261.979C157.211 261.979 201.73 217.397 201.73 162.402C201.73 107.407 157.211 62.8242 102.294 62.8242C47.3767 62.8242 2.85753 107.407 2.85753 162.402C2.85753 217.397 47.3767 261.979 102.294 261.979Z" fill="#DA0443"/>
<path fill-rule="evenodd" clip-rule="evenodd" d="M127.809 108.081C126.979 107.536 127.498 105.609 141.222 77.766C152.709 54.457 138.513 43.8087 130.757 37.5685C129.509 36.564 129.939 35.6007 129.931 35.5972C129.925 35.594 130.396 34.8341 132.531 35.5972C137.938 37.5285 148.618 42.5874 160.769 33.4714C163.155 31.6828 165.311 30.0159 167.223 28.1489C178.396 17.2382 183.839 2.64621 187.415 4.03816C189.706 4.92998 180.261 27.596 178.487 49.6813C178.148 53.8908 183.496 66.0548 191.494 75.6679C191.732 75.9546 191.998 76.2186 192.199 76.527C217.885 115.971 194.92 143.87 193.28 147.89C192.085 150.818 173.391 176.532 149.7 182.934C147.266 183.591 147.301 183.607 148.928 185.986C149.093 186.227 155.148 196.298 171.717 206.84C173.447 207.941 175.248 209.523 176.15 211.461C177.051 213.395 165.919 221.129 164.492 222.316C163.968 222.751 154.638 229.65 151.763 229.801C148.636 229.966 139.995 224.331 139.962 224.332C139.896 224.337 33.8145 156.875 52.5648 81.6259C60.8275 48.4661 87.7361 32.9006 118.019 34.1912C118.175 34.1979 124.55 42.3087 124.055 42.3764C95.7825 46.2415 91.4069 81.6854 97.3449 109.679C99.5773 120.201 107.114 128.892 110.93 132.15C136.154 153.684 199.4 138.175 194.434 90.8464C193.466 81.6192 169.059 63.996 137.706 98.6402C130.313 106.809 128.638 108.629 127.809 108.081Z" fill="black" stroke="black" stroke-miterlimit="1.5" stroke-linecap="round" stroke-linejoin="round"/>
</svg>
